# xmcd
#
# Track frame offsets: 
#        150
#        12555
#        26737
#        40937
#        52832
#        63770
#        75202
#        86900
#        100942
#        111740
#        123817
#        134692
#        146092
#        159720
#        169900
#        181615
#        195145
#        204235
#        215745
#        228685
#        242070
#        259045
#        271382
#        285215
#        296545
#        308985
#        319592
#        332425
#        345657
#
# Disc length: 4773 seconds
#
# Revision: 2
# Processed by: cddbd v1.5.2PL0 Copyright (c) Steve Scherf et al.
# Submitted via: ExactAudioCopy v1.3
#
DISCID=a012a31d
DTITLE=Ray Price - Ray Price And The Cherokee Cowboys_CD08
DYEAR=1995
DGENRE=Country
TTITLE0=Big Shoes
TTITLE1=Walk Me To The Door
TTITLE2=You Took Her Off My Hands
TTITLE3=Be A Good Girl
TTITLE4=Make The World Go Away
TTITLE5=I'll Find A Way (To Free Myself Of You)
TTITLE6=Make The World Go Away
TTITLE7=Let Me Talk To You
TTITLE8=I'll Find A Way (To Free Myself Of you)
TTITLE9=I've Still Got Room (For One More Heartache)
TTITLE10=That's All That Matters
TTITLE11=Burning Memories
TTITLE12=Each Time
TTITLE13=A Way To Free Myself
TTITLE14=How Long Is Forever
TTITLE15=This Cold War With You
TTITLE16=Take Me As I Am (Or Let Me Go)
TTITLE17=All Right (I'll Sign The Papers)
TTITLE18=I Fall To Pieces
TTITLE19=Please Talk To My Heart
TTITLE20=Cold, Cold Heart
TTITLE21=Still
TTITLE22=I Don't Know Why (I Keep Loving You)
TTITLE23=Same Old Memories
TTITLE24=Here Comes My Baby Back Again
TTITLE25=Together Again
TTITLE26=A Thing Called Sadness
TTITLE27=Soft Rain
TTITLE28=Release Me
EXTD=
EXTT0=
EXTT1=
EXTT2=
EXTT3=
EXTT4=
EXTT5=
EXTT6=
EXTT7=
EXTT8=
EXTT9=
EXTT10=
EXTT11=
EXTT12=
EXTT13=
EXTT14=
EXTT15=
EXTT16=
EXTT17=
EXTT18=
EXTT19=
EXTT20=
EXTT21=
EXTT22=
EXTT23=
EXTT24=
EXTT25=
EXTT26=
EXTT27=
EXTT28=
PLAYORDER=
